<svg xmlns="http://www.w3.org/2000/svg" version="1.1" xmlns:xlink="http://www.w3.org/1999/xlink" xmlns:svgjs="http://svgjs.dev/svgjs" width="1000" height="1125" viewBox="0 0 1000 1125"><g transform="matrix(1,0,0,1,0.00011477487282718357,0)"><svg viewBox="0 0 320 360" data-background-color="#ffffff" preserveAspectRatio="xMidYMid meet" height="1125" width="1000" xmlns="http://www.w3.org/2000/svg" xmlns:xlink="http://www.w3.org/1999/xlink"><g id="tight-bounds" transform="matrix(1,0,0,1,-0.00003672795929787753,0)"><svg viewBox="0 0 320 360" height="360" width="320"><g><svg></svg></g><g><svg viewBox="0 0 320 360" height="360" width="320"><g><path transform="translate(-32.1528,-12.1528) scale(3.84303,3.84303)" d="M88.492 50l1.711-2.963c2.946-5.102 1.198-11.626-3.904-14.572l-2.963-1.711v-3.422c0-5.891-4.776-10.667-10.667-10.667h-3.422l-1.711-2.963c-2.946-5.102-9.47-6.85-14.572-3.904l-2.964 1.71-2.963-1.711c-5.102-2.945-11.626-1.197-14.572 3.905l-1.711 2.963h-3.422c-5.891 0-10.667 4.776-10.667 10.667v3.422l-2.963 1.711c-5.102 2.946-6.85 9.47-3.904 14.572l1.71 2.963-1.711 2.963c-2.945 5.102-1.197 11.626 3.905 14.572l2.963 1.711v3.422c0 5.891 4.776 10.667 10.667 10.667h3.422l1.711 2.963c2.946 5.102 9.47 6.85 14.572 3.904l2.963-1.71 2.963 1.711c5.102 2.946 11.626 1.198 14.572-3.904l1.711-2.963h3.422c5.891 0 10.667-4.776 10.667-10.667v-3.422l2.963-1.711c5.102-2.946 6.85-9.47 3.904-14.572zM85.832 33.273c2.252 1.3 3.862 3.399 4.535 5.91 0.673 2.511 0.328 5.135-0.972 7.386l-1.441 2.497-4.618-7.999v-9.236zM73.72 73.72l-15.038 8.682h-17.364l-15.038-8.682-8.682-15.038v-17.364l8.682-15.038 15.038-8.682h17.364l15.038 8.682 8.682 15.038v17.364zM82.401 60.549v8.158l-7.065 4.079zM72.786 75.336l-4.079 7.065h-8.158zM57.065 83.335l-7.065 4.079-7.065-4.079zM39.451 82.401h-8.158l-4.079-7.065zM24.664 72.786l-7.065-4.079v-8.158zM16.665 57.065l-4.079-7.065 4.079-7.065zM17.599 39.451v-8.158l7.065-4.079zM27.214 24.664l4.079-7.065h8.158zM42.935 16.665l7.065-4.079 7.065 4.079zM60.549 17.599h8.158l4.079 7.065zM75.336 27.214l7.065 4.079v8.158zM83.335 42.935l4.079 7.065-4.079 7.065zM72.668 17.599c2.6 0 5.044 1.012 6.883 2.851 1.838 1.838 2.851 4.283 2.851 6.883v2.883l-7.999-4.618-4.618-7.999zM53.43 10.606c2.252-1.3 4.875-1.645 7.386-0.972 2.511 0.673 4.61 2.284 5.91 4.535l1.441 2.497h-9.236l-7.999-4.618zM33.273 14.168c1.3-2.252 3.399-3.862 5.91-4.535 2.511-0.673 5.135-0.328 7.386 0.972l2.497 1.441-7.999 4.618h-9.236zM17.599 27.332c0-2.6 1.012-5.044 2.851-6.883 1.838-1.838 4.283-2.851 6.883-2.851h2.883l-4.618 7.999-7.999 4.618zM10.606 46.57c-1.3-2.252-1.645-4.875-0.972-7.386 0.673-2.511 2.284-4.61 4.535-5.91l2.497-1.441v9.236l-4.618 7.999zM14.168 66.727c-2.252-1.3-3.862-3.399-4.535-5.91-0.673-2.511-0.328-5.135 0.972-7.386l1.441-2.497 4.618 7.999v9.236zM27.332 82.401c-2.6 0-5.044-1.012-6.883-2.851-1.838-1.838-2.851-4.283-2.851-6.883v-2.883l7.999 4.618 4.618 7.999zM46.57 89.394c-2.252 1.3-4.875 1.645-7.386 0.972-2.511-0.673-4.61-2.284-5.91-4.535l-1.441-2.497h9.236l7.999 4.618zM66.727 85.832c-1.3 2.252-3.399 3.862-5.91 4.535-2.511 0.673-5.135 0.328-7.386-0.972l-2.497-1.441 7.999-4.618h9.236zM82.401 72.668c0 2.6-1.012 5.044-2.851 6.883-1.838 1.838-4.283 2.851-6.883 2.851h-2.883l4.618-7.999 7.999-4.618zM90.367 60.816c-0.673 2.511-2.284 4.61-4.535 5.91l-2.497 1.441v-9.236l4.618-7.999 1.441 2.497c1.3 2.253 1.646 4.876 0.973 7.387z" fill="#010c80" fill-rule="nonzero" stroke="none" stroke-width="1" stroke-linecap="butt" stroke-linejoin="miter" stroke-miterlimit="10" stroke-dasharray="" stroke-dashoffset="0" font-family="none" font-weight="none" font-size="none" text-anchor="none" style="mix-blend-mode: normal" data-fill-palette-color="tertiary"></path></g><g transform="matrix(1,0,0,1,70,90)"><svg viewBox="0 0 180 180" height="180" width="180"><g><svg viewBox="0 0 180 180" height="180" width="180"><g><svg viewBox="0 0 180 180" height="180" width="180"><g id="textblocktransform"><svg viewBox="0 0 180 180" height="180" width="180" id="textblock"><g><svg viewBox="0 0 180 180" height="180" width="180"><g transform="matrix(1,0,0,1,36.966991411008934,36.966991411008934)"><svg viewBox="0 0 106.06601717798213 106.06601717798213" height="106.06601717798213" width="106.06601717798213"><g><circle r="53" cx="53.033008588991066" cy="53.033008588991066" fill="#77d4fc" data-fill-palette-color="accent"></circle><svg xmlns="http://www.w3.org/2000/svg" xmlns:xlink="http://www.w3.org/1999/xlink" version="1.1" x="15.90990257669732" y="15.90990257669732" viewBox="9.784750032812795 1.0005267134283027 80.42672461614806 97.9994732865717" enable-background="new 0 0 100 100" xml:space="preserve" height="74.24621202458749" width="74.24621202458749" class="icon-kg-0" data-fill-palette-color="quaternary" id="kg-0"><g fill="#ffffff" data-fill-palette-color="quaternary"><path d="M24.284 4.383c0.214-2.174 3.836-3.782 6.105-3.295 2.27 0.486 6.105 5.727 7.457 5.673 1.352-0.053 3.404-1.783 5.241-1.243 1.838 0.541 0.864 4.486-0.918 6.106-1.783 1.621 0.756 3.729 0.108 4.809-0.649 1.081-2.54 0.324-3.134 0-0.596-0.324 1.296 1.891 0.863 4.107-0.432 2.215 5.832 2.755 5.672 4.269-0.16 1.513-3.51 3.35-1.673 4.701 1.837 1.35 7.457 4.971 9.564 4.646 2.106-0.323 5.78 3.08 8.322 3.135 2.539 0.054 3.836-0.378 3.836-1.243 0-0.864-0.486-4.052 0.595-4.052s1.458 1.513 1.458 3.08c0 1.566 2.053 1.458 4.702 1.026 2.646-0.433 4.377-0.162 3.837-1.188-0.542-1.027-1.911-2.377 0.098-2.377s5.305-5.188 6.438-5.62c1.137-0.433 5.08-0.271 4.917 1.458-0.161 1.729 3.081 0.865 2.325 2.485-0.757 1.621-1.351 2-3.188 3.188-1.838 1.189-2.594 6.592-3.352 8.538-0.756 1.946-0.865 2.648-2.215 2.486-1.351-0.162-0.541 0.432-1.406 2.593-0.862 2.162 0.488 3.352-0.7 3.945-1.19 0.594-1.676-3.138-1.73-4.325-0.055-1.188-1.081-0.863-1.081 0.488 0 1.351-2.216 0.938-1.944-0.639 0.27-1.576 1.944-2.009 2.323-3.089 0.378-1.081 0.215-2.377-0.812-2.27-1.025 0.108-5.241 0.217-5.457-0.54-0.215-0.757 0.378-2.054-1.296-2.486-1.676-0.432-2.865-1.458-3.136-0.108-0.27 1.351 2.217 2.377 1.46 2.972-0.757 0.594-2.432 1.081-1.405 2.27 1.025 1.189 1.783 0.973 1.514 1.946-0.27 0.973 0.594 1.62 0.812 2.809 0.214 1.19 0.538 4.108-0.056 4.756-0.595 0.648-2.756 0.108-2.756-0.433 0-0.54-2.972 0.595-3.025 2.161-0.054 1.567-0.865 3.729-2.541 4.646-1.674 0.919-2.431-0.052-3.188 1.569-0.757 1.62-2.216 2.97-4.322 5.186-2.106 2.217-3.405 2.378-3.458 3.404-0.055 1.027 0.756 1.243-1.945 1.459-2.702 0.216-1.567 2.054-2.647 2.161-1.081 0.108-2.324 0.162-2.217 2.864 0.108 2.702 1.081 5.404 0.541 6.862-0.541 1.46-2.27 3.404-1.729 5.458 0.54 2.054-2.324 2.702-2.648 4.161C38.171 94.352 35.469 99 33.47 99s-3.188-2.539-3.998-6.27c-0.811-3.729-1.298-6.321-2.864-8.753-1.567-2.433-0.594-5.349-2.594-8.538-1.999-3.188-2.054-7.078-2.432-10.591s-0.756-4.863-0.378-6.701c0.378-1.837 0.713-7.24-0.157-7.564-0.869-0.324-1.086 4.864-4.545 4.485-3.458-0.379-5.673-4.648-5.187-5.512 0.486-0.865 3.836-0.919 3.296-1.783-0.54-0.865-5.133-0.162-4.81-2.864 0.325-2.702 2.919-2.323 5.134-1.891 2.216 0.432 2.973-0.54 2.216-2-0.757-1.459-0.864-5.133-2.107-5.403-1.243-0.271-1.837-1.405-0.486-2.756 1.351-1.351 2.053-2.972 3.403-1.567 1.353 1.405 3.188-0.703 4.162-2.324 0.972-1.621 4.646-6.376 5.511-7.079 0.864-0.702 0.433-3.025 1.136-3.242 0.702-0.217 2.484-0.973 1.837-1.567-0.649-0.594-1.73-1.837-3.351-2.648-1.621-0.811-1.838-3.837-0.648-4.863 1.188-1.027 1.621-2.054 0.811-3.08C26.607 5.463 24.23 4.926 24.284 4.383z" fill="#ffffff" data-fill-palette-color="quaternary"></path></g></svg></g></svg></g><g><path d="M6.925 53.645l16.909 5.94-1.571 4.471-9.106 0.748-0.076 0.216 7.872 2.766-1.452 4.133-16.908-5.94 1.613-4.593 9.294-0.503 0.076-0.216-8.116-2.851z" fill="#010c80" data-fill-palette-color="primary"></path><path d="M31.057 41.067l3.121 2.585-5.633 7.882-14.581-10.419 5.801-8.117 3.42 2.799-2.767 3.872 2.187 1.563 2.403-3.362 3.102 2.217-2.402 3.362 2.414 1.725z" fill="#010c80" data-fill-palette-color="primary"></path><path d="M40.054 15.272l3.646-2.738 9.473 15.298-4.752 3.569-6.016-5.406-0.183 0.138 3.723 7.128-4.777 3.588-12.259-13.206 3.781-2.84 6.31 7.14 0.23-0.173-4.741-8.318 3.853-2.894 6.771 6.793 0.231-0.173z" fill="#010c80" data-fill-palette-color="primary"></path><path d="M57.227 11.789c-0.565-1.617-0.545-3.079 0.059-4.387 0.602-1.314 1.724-2.259 3.365-2.832 1.642-0.574 3.384-1 5.228-1.279v0l0.979 4.551c-1.945 0.209-3.253 0.43-3.923 0.665v0c-0.858 0.3-1.167 0.795-0.926 1.484v0c0.096 0.276 0.395 0.467 0.896 0.573 0.497 0.115 1.086 0.211 1.767 0.289 0.675 0.08 1.372 0.213 2.091 0.398 0.721 0.191 1.412 0.579 2.073 1.163 0.659 0.578 1.154 1.34 1.485 2.286v0c0.605 1.729 0.607 3.226 0.008 4.491-0.59 1.268-1.734 2.199-3.432 2.792-1.698 0.594-3.447 0.91-5.248 0.949v0l-1.119-4.166c2.139-0.115 3.588-0.305 4.347-0.57 0.764-0.267 1.029-0.736 0.795-1.406v0c-0.12-0.345-0.436-0.593-0.946-0.745-0.508-0.146-1.105-0.264-1.791-0.355-0.683-0.085-1.387-0.215-2.109-0.392-0.723-0.176-1.415-0.557-2.076-1.141-0.668-0.582-1.176-1.372-1.523-2.368z" fill="#010c80" data-fill-palette-color="primary"></path><path d="M89.745 13.466l0.062 4.023-9.075 0.794-1.562-17.853 4.909-0.43 1.213 13.856z" fill="#010c80" data-fill-palette-color="primary"></path><path d="M105.762 0.862l-2.192 17.787-4.862-0.599 2.192-17.787z" fill="#010c80" data-fill-palette-color="primary"></path><path d="M131.835 9.385l-6.671 16.633-4.399-1.764-0.35-9.13-0.212-0.085-3.106 7.743-4.066-1.63 6.671-16.634 4.519 1.813 0.097 9.307 0.212 0.085 3.202-7.984z" fill="#010c80" data-fill-palette-color="primary"></path><path d="M145.713 30.28l-2.978 8.743-4.233-3.442 2.583-6.601-0.224-0.182-4.259 5.237-3.716-3.021 11.307-13.905 3.716 3.022-4.737 5.824 0.224 0.182 6.753-4.184 4.117 3.348z" fill="#010c80" data-fill-palette-color="primary"></path><path d="M157.198 50.993l-3.449 2.129-5.664-7.859 14.539-10.478 5.833 8.093-3.747 2.345-2.782-3.861-2.181 1.571 2.416 3.352-3.094 2.23-2.416-3.352-2.407 1.735z" fill="#010c80" data-fill-palette-color="primary"></path><path d="M173.455 68.266v0c-1.008 0.374-1.905 0.533-2.691 0.478-0.779-0.058-1.559-0.31-2.34-0.756v0l-6.31 4.889-1.856-5.003 5.435-3.928-0.232-0.626-6.059 2.248-1.683-4.537 16.803-6.233 2.327 6.273c0.669 1.805 0.737 3.284 0.202 4.438-0.537 1.148-1.736 2.067-3.596 2.757zM168.571 62.974c0.173 0.467 0.43 0.75 0.772 0.85 0.348 0.098 0.876 0.015 1.585-0.249 0.716-0.265 1.173-0.549 1.374-0.849 0.206-0.303 0.226-0.679 0.06-1.127v0l-0.274-0.737-3.78 1.402z" fill="#010c80" data-fill-palette-color="primary"></path><path d="M27.956 122.796l-17.173 6.058-1.599-4.535 6.731-6.387-0.079-0.225-7.99 2.818-1.481-4.197 17.173-6.058 1.646 4.667-7.041 6.316 0.076 0.216 8.244-2.908z" fill="#010c80" data-fill-palette-color="primary"></path><path d="M26.476 146.061l-3.509 2.146-5.734-8.004 14.803-10.606 5.908 8.248-3.824 2.372-2.818-3.933-2.217 1.588 2.441 3.408-3.141 2.249-2.441-3.407-2.46 1.763z" fill="#010c80" data-fill-palette-color="primary"></path><path d="M53.54 150.668l3.714 2.781-12.231 13.591-4.838-3.623 3.568-7.404-0.184-0.137-5.894 5.661-4.861-3.641 9.394-15.715 3.849 2.882-5.17 8.182 0.232 0.173 6.771-6.982 3.921 2.937-4.708 8.527 0.231 0.174z" fill="#010c80" data-fill-palette-color="primary"></path><path d="M60.998 161.147c0.571-1.643 1.51-2.795 2.816-3.458 1.306-0.663 2.796-0.704 4.47-0.122 1.674 0.582 3.328 1.343 4.961 2.284v0l-2.095 4.236c-1.676-1.061-2.856-1.71-3.54-1.947v0c-0.871-0.303-1.429-0.103-1.673 0.598v0c-0.096 0.276 0.021 0.615 0.352 1.019 0.322 0.407 0.729 0.854 1.22 1.341 0.489 0.493 0.963 1.041 1.421 1.643 0.45 0.606 0.754 1.348 0.913 2.226 0.157 0.884 0.068 1.805-0.266 2.764v0c-0.61 1.755-1.553 2.949-2.826 3.581-1.274 0.632-2.773 0.648-4.498 0.049-1.73-0.602-3.324-1.455-4.781-2.559v0l1.746-4.02c1.774 1.264 3.047 2.029 3.818 2.298 0.777 0.27 1.285 0.064 1.523-0.62v0c0.122-0.351 0.029-0.749-0.281-1.194-0.311-0.439-0.714-0.909-1.206-1.41-0.487-0.5-0.964-1.048-1.431-1.647-0.46-0.596-0.773-1.334-0.938-2.213-0.157-0.884-0.058-1.833 0.295-2.849z" fill="#010c80" data-fill-palette-color="primary"></path><path d="M89.418 175.969l-0.649 4.031-9.224-0.798 1.569-18.142 4.99 0.431-1.219 14.086z" fill="#010c80" data-fill-palette-color="primary"></path><path d="M103.09 160.705l2.222 18.074-4.951 0.608-2.222-18.074z" fill="#010c80" data-fill-palette-color="primary"></path><path d="M123.628 153.592l6.764 16.907-4.465 1.786-6.66-6.461-0.222 0.089 3.147 7.866-4.132 1.653-6.763-16.907 4.594-1.838 6.602 6.774 0.213-0.085-3.247-8.116z" fill="#010c80" data-fill-palette-color="primary"></path><path d="M143.495 150.571l8.075 4.781-4.305 3.495-6.032-3.939-0.224 0.182 4.324 5.326-3.78 3.069-11.478-14.138 3.78-3.068 4.807 5.921 0.224-0.182-2.759-7.584 4.19-3.402z" fill="#010c80" data-fill-palette-color="primary"></path><path d="M161.901 135.99l3.15 2.644-5.767 7.982-14.76-10.664 5.941-8.224 3.465 2.872-2.834 3.922 2.212 1.597 2.454-3.397 3.132 2.262-2.455 3.398 2.453 1.772z" fill="#010c80" data-fill-palette-color="primary"></path><path d="M163.39 111.604v0c1.026 0.383 1.82 0.856 2.383 1.419 0.562 0.564 0.994 1.277 1.295 2.14v0l8.11 0.42-1.895 5.084-6.794-0.587-0.236 0.634 6.157 2.295-1.718 4.609-17.063-6.36 2.375-6.372c0.682-1.829 1.61-3.009 2.786-3.541 1.182-0.53 2.715-0.444 4.6 0.259zM163.638 118.921c0.178-0.479 0.168-0.869-0.032-1.17-0.199-0.301-0.663-0.587-1.39-0.858-0.721-0.269-1.262-0.357-1.623-0.265-0.354 0.095-0.617 0.372-0.788 0.833v0l-0.279 0.746 3.844 1.433z" fill="#010c80" data-fill-palette-color="primary"></path><path d="M7.833 91.801c0-1.153 0.934-2.087 2.086-2.087 1.153 0 2.087 0.934 2.087 2.087 0 1.153-0.934 2.087-2.087 2.087-1.153 0-2.087-0.934-2.086-2.087z" fill="#010c80" data-fill-palette-color="primary"></path><path d="M169.128 91.801c0-1.153 0.934-2.087 2.087-2.087 1.153 0 2.087 0.934 2.087 2.087 0 1.153-0.934 2.087-2.087 2.087-1.153 0-2.087-0.934-2.087-2.087z" fill="#010c80" data-fill-palette-color="primary"></path></g></svg></g></svg></g></svg></g></svg></g></svg></g></svg></g><defs></defs></svg><rect width="320" height="360" fill="none" stroke="none" visibility="hidden"></rect></g></svg></g></svg>